<svg xmlns="http://www.w3.org/2000/svg" viewBox="0 0 180 180"><defs><style>.a{fill:#fff;}.b{fill:#1c3c5d;}.c{fill:#c9fbff;}</style></defs><rect class="a" x="10" y="10" width="160" height="160"/><polygon class="b" points="165 15 15 15 15 71.48 4.28 83.6 0 88.44 0 95.24 9.53 95.24 15 95.24 15 165 33.97 165 33.96 165.44 34.69 165 165 165 165 44.66 168.64 39.37 176.21 28.4 165 28.4 165 15"/><polygon class="c" points="38.26 91.74 1.76 91.74 19.06 72.17 38.47 72.17 38.71 50.44 18.85 31.9 63.12 31.9 63.12 72.17 99.97 72.17 84.17 91.74 66.46 91.74 89.4 127.26 118.5 127.26 130.71 116.02 130.71 95.31 94.83 52.86 106.89 31.9 169.54 31.9 156.5 50.82 123.12 50.82 156.23 86.21 156.23 133.58 134.93 153.27 81.91 153.27 63.12 120.23 63.12 143.86 37.53 159.22 38.26 91.74"/></svg>